<?xml version="1.0" encoding="UTF-8"?>
<svg width="700pt" height="700pt" version="1.1" viewBox="0 0 700 700" xmlns="http://www.w3.org/2000/svg" xmlns:xlink="http://www.w3.org/1999/xlink">
 <defs>
  <symbol id="u" overflow="visible">
   <path d="m0.21875-0.015625c-0.011719 0.011719-0.023438 0.015625-0.03125 0.015625h-0.046875c-0.03125 0-0.0625-0.0078125-0.09375-0.03125-0.023438-0.019531-0.03125-0.050781-0.03125-0.09375 0-0.03125 0.0078125-0.054688 0.03125-0.078125 0.03125-0.03125 0.0625-0.046875 0.09375-0.046875 0.019531 0 0.035156 0.007812 0.046875 0.015625h0.03125v0.0625c-0.011719-0.007813-0.023438-0.015625-0.03125-0.015625-0.011719-0.007812-0.023438-0.015625-0.03125-0.015625-0.023438 0-0.042969 0.011719-0.0625 0.03125-0.011719 0.011719-0.015625 0.027344-0.015625 0.046875 0 0.03125 0.0039062 0.054688 0.015625 0.0625 0.019531 0.011719 0.039062 0.015625 0.0625 0.015625h0.03125c0.007812 0 0.019531-0.0039062 0.03125-0.015625z"/>
  </symbol>
  <symbol id="d" overflow="visible">
   <path d="m0.15625-0.125c0-0.007812-0.007812-0.015625-0.015625-0.015625-0.023437 0-0.039063 0.007813-0.046875 0.015625v0.046875 0.078125h-0.0625v-0.1875h0.0625v0.03125c0-0.007812 0.0039062-0.015625 0.015625-0.015625 0.007813-0.007813 0.019531-0.015625 0.03125-0.015625h0.015625z"/>
  </symbol>
  <symbol id="b" overflow="visible">
   <path d="m0.20312-0.09375v0.015625h-0.125v0.046875h0.046875 0.03125c0.019531-0.0078125 0.035156-0.019531 0.046875-0.03125v0.046875c-0.011719 0.011719-0.027344 0.015625-0.046875 0.015625h-0.03125c-0.042969 0-0.074219-0.0039062-0.09375-0.015625-0.011719-0.019531-0.015625-0.046875-0.015625-0.078125s0.0039062-0.050781 0.015625-0.0625c0.019531-0.019531 0.046875-0.03125 0.078125-0.03125s0.050781 0.011719 0.0625 0.03125c0.019531 0.011719 0.03125 0.03125 0.03125 0.0625zm-0.046875-0.015625c0-0.007813-0.007812-0.015625-0.015625-0.015625-0.011719-0.007812-0.023437-0.015625-0.03125-0.015625-0.011719 0-0.023438 0.007813-0.03125 0.015625v0.015625z"/>
  </symbol>
  <symbol id="c" overflow="visible">
   <path d="m0.10938-0.078125c-0.011719 0-0.023438 0.0078125-0.03125 0.015625v0.03125h0.015625c0.019531 0 0.03125-0.0039062 0.03125-0.015625 0.007812-0.0078125 0.015625-0.019531 0.015625-0.03125zm0.09375-0.03125v0.10938h-0.0625v-0.03125c-0.011719 0.011719-0.023437 0.023438-0.03125 0.03125h-0.03125c-0.023438 0-0.039062-0.0039062-0.046875-0.015625-0.011719-0.0078125-0.015625-0.023438-0.015625-0.046875 0-0.019531 0.0039062-0.03125 0.015625-0.03125 0.019531-0.007812 0.046875-0.015625 0.078125-0.015625h0.03125v-0.015625c0-0.007812-0.007813-0.015625-0.015625-0.015625h-0.03125-0.03125-0.03125v-0.03125c0.0078125-0.007813 0.019531-0.015625 0.03125-0.015625h0.046875c0.03125 0 0.050781 0.011719 0.0625 0.03125 0.019531 0.011719 0.03125 0.027344 0.03125 0.046875z"/>
  </symbol>
  <symbol id="a" overflow="visible">
   <path d="m0.09375-0.23438v0.046875h0.0625v0.046875h-0.0625v0.078125 0.015625h0.015625 0.03125v0.046875h-0.046875c-0.023438 0-0.039062-0.0039062-0.046875-0.015625-0.011719-0.0078125-0.015625-0.023438-0.015625-0.046875v-0.078125h-0.03125v-0.046875h0.03125v-0.046875z"/>
  </symbol>
  <symbol id="l" overflow="visible">
   <path d="m0.15625-0.15625v-0.09375h0.046875v0.25h-0.046875v-0.03125c-0.011719 0.011719-0.023438 0.023438-0.03125 0.03125h-0.03125c-0.023438 0-0.042969-0.0039062-0.0625-0.015625-0.011719-0.019531-0.015625-0.046875-0.015625-0.078125s0.0039062-0.050781 0.015625-0.0625c0.019531-0.019531 0.039062-0.03125 0.0625-0.03125 0.007812 0 0.019531 0.007812 0.03125 0.015625 0.007812 0 0.019531 0.007813 0.03125 0.015625zm-0.046875 0.125c0.007813 0 0.019531-0.0039062 0.03125-0.015625 0.007813-0.0078125 0.015625-0.023438 0.015625-0.046875 0-0.007812-0.007812-0.019531-0.015625-0.03125-0.011719-0.007812-0.023437-0.015625-0.03125-0.015625-0.011719 0-0.023438 0.007813-0.03125 0.015625v0.03125 0.046875c0.0078125 0.011719 0.019531 0.015625 0.03125 0.015625z"/>
  </symbol>
  <symbol id="k" overflow="visible">
   <path d="m0.125-0.03125c0.007812 0 0.015625-0.0039062 0.015625-0.015625 0.007813-0.0078125 0.015625-0.023438 0.015625-0.046875 0-0.007812-0.007812-0.019531-0.015625-0.03125 0-0.007812-0.007813-0.015625-0.015625-0.015625-0.011719 0-0.023438 0.007813-0.03125 0.015625v0.03125 0.046875c0.007812 0.011719 0.019531 0.015625 0.03125 0.015625zm-0.03125-0.125c0-0.007812 0.0039062-0.015625 0.015625-0.015625 0.007813-0.007813 0.019531-0.015625 0.03125-0.015625 0.03125 0 0.050781 0.011719 0.0625 0.03125 0.007813 0.011719 0.015625 0.03125 0.015625 0.0625s-0.007812 0.058594-0.015625 0.078125c-0.011719 0.011719-0.03125 0.015625-0.0625 0.015625h-0.03125c-0.011719-0.0078125-0.015625-0.019531-0.015625-0.03125v0.03125h-0.0625v-0.25h0.0625z"/>
  </symbol>
  <symbol id="j" overflow="visible">
   <path d="m0-0.1875h0.0625l0.046875 0.125 0.046875-0.125h0.0625l-0.078125 0.20312c-0.011719 0.019531-0.023437 0.035156-0.03125 0.046875-0.011719 0.0078125-0.027344 0.015625-0.046875 0.015625h-0.03125v-0.046875h0.015625 0.015625c0.0078125 0 0.015625-0.0078125 0.015625-0.015625v-0.015625z"/>
  </symbol>
  <symbol id="i" overflow="visible">
   <path d="m0.015625-0.1875h0.046875l0.03125 0.125 0.03125-0.125h0.046875l0.03125 0.125 0.03125-0.125h0.0625l-0.046875 0.1875h-0.0625l-0.03125-0.125-0.03125 0.125h-0.0625z"/>
  </symbol>
  <symbol id="f" overflow="visible">
   <path d="m0.21875-0.10938v0.10938h-0.0625v-0.078125-0.03125c0-0.007813-0.007812-0.015625-0.015625-0.015625v-0.015625h-0.015625c-0.011719 0-0.023438 0.007813-0.03125 0.015625v0.03125 0.09375h-0.0625v-0.1875h0.0625v0.03125c0-0.007812 0.0039062-0.015625 0.015625-0.015625 0.007813-0.007813 0.019531-0.015625 0.03125-0.015625 0.019531 0 0.035156 0.011719 0.046875 0.03125 0.019531 0.011719 0.03125 0.027344 0.03125 0.046875z"/>
  </symbol>
  <symbol id="h" overflow="visible">
   <path d="m0.03125-0.1875h0.0625v0.1875h-0.0625zm0-0.0625h0.0625v0.046875h-0.0625z"/>
  </symbol>
  <symbol id="g" overflow="visible">
   <path d="m0.17188-0.17188v0.046875c-0.011719-0.007812-0.023437-0.015625-0.03125-0.015625h-0.015625c-0.011719 0-0.023438 0.007813-0.03125 0.015625-0.011719 0.011719-0.015625 0.023438-0.015625 0.03125 0 0.023438 0.0039062 0.039062 0.015625 0.046875 0.007812 0.011719 0.019531 0.015625 0.03125 0.015625h0.03125c0.007812-0.0078125 0.015625-0.015625 0.015625-0.015625v0.046875h-0.03125-0.015625c-0.042969 0-0.074219-0.0039062-0.09375-0.015625-0.011719-0.019531-0.015625-0.046875-0.015625-0.078125s0.0039062-0.050781 0.015625-0.0625c0.019531-0.019531 0.050781-0.03125 0.09375-0.03125h0.015625c0.007813 0 0.019531 0.007812 0.03125 0.015625z"/>
  </symbol>
  <symbol id="t" overflow="visible">
   <path d="m0.03125-0.25h0.0625v0.14062l0.0625-0.078125h0.0625l-0.09375 0.09375 0.10938 0.09375h-0.078125l-0.0625-0.078125v0.078125h-0.0625z"/>
  </symbol>
  <symbol id="s" overflow="visible">
   <path d="m0.14062-0.25v0.03125h-0.03125s-0.007813 0.007812-0.015625 0.015625v0.015625h0.046875v0.046875h-0.046875v0.14062h-0.0625v-0.14062h-0.03125v-0.046875h0.03125c0-0.019531 0.0039062-0.035156 0.015625-0.046875 0.0078125-0.007813 0.03125-0.015625 0.0625-0.015625z"/>
  </symbol>
  <symbol id="e" overflow="visible">
   <path d="m0.10938-0.14062c-0.011719 0-0.023438 0.007813-0.03125 0.015625v0.03125 0.046875c0.0078125 0.011719 0.019531 0.015625 0.03125 0.015625 0.019531 0 0.03125-0.0039062 0.03125-0.015625 0.007813-0.0078125 0.015625-0.023438 0.015625-0.046875 0-0.019531-0.007812-0.03125-0.015625-0.03125 0-0.007812-0.011719-0.015625-0.03125-0.015625zm0-0.046875c0.03125 0 0.054687 0.011719 0.078125 0.03125 0.019531 0.011719 0.03125 0.03125 0.03125 0.0625s-0.011719 0.058594-0.03125 0.078125c-0.023438 0.011719-0.046875 0.015625-0.078125 0.015625s-0.058594-0.0039062-0.078125-0.015625c-0.011719-0.019531-0.015625-0.046875-0.015625-0.078125s0.0039062-0.050781 0.015625-0.0625c0.019531-0.019531 0.046875-0.03125 0.078125-0.03125z"/>
  </symbol>
  <symbol id="r" overflow="visible">
   <path d="m0.20312-0.15625c0-0.007812 0.003906-0.015625 0.015625-0.015625 0.007812-0.007813 0.019531-0.015625 0.03125-0.015625 0.019531 0 0.035156 0.011719 0.046875 0.03125 0.019531 0.011719 0.03125 0.027344 0.03125 0.046875v0.10938h-0.0625v-0.09375-0.015625c0-0.007813-0.007813-0.015625-0.015625-0.015625 0-0.007812-0.007812-0.015625-0.015625-0.015625-0.011719 0-0.023437 0.007813-0.03125 0.015625v0.03125 0.09375h-0.0625v-0.09375-0.03125c0-0.007812-0.007813-0.015625-0.015625-0.015625-0.011719 0-0.023438 0.007813-0.03125 0.015625v0.03125 0.09375h-0.0625v-0.1875h0.0625v0.03125c0-0.007812 0.0039062-0.015625 0.015625-0.015625 0.007813-0.007813 0.019531-0.015625 0.03125-0.015625 0.007813 0 0.019531 0.007812 0.03125 0.015625 0.007813 0 0.019531 0.007813 0.03125 0.015625z"/>
  </symbol>
  <symbol id="q" overflow="visible">
   <path d="m0.21875-0.10938v0.10938h-0.0625v-0.078125-0.03125c0-0.007813-0.007812-0.015625-0.015625-0.015625v-0.015625h-0.015625c-0.011719 0-0.023438 0.007813-0.03125 0.015625v0.03125 0.09375h-0.0625v-0.25h0.0625v0.09375c0-0.007812 0.0039062-0.015625 0.015625-0.015625 0.007813-0.007813 0.019531-0.015625 0.03125-0.015625 0.019531 0 0.035156 0.011719 0.046875 0.03125 0.019531 0.011719 0.03125 0.027344 0.03125 0.046875z"/>
  </symbol>
  <symbol id="p" overflow="visible">
   <path d="m0.03125-0.25h0.0625l0.09375 0.17188v-0.17188h0.0625v0.25h-0.078125l-0.078125-0.17188v0.17188h-0.0625z"/>
  </symbol>
  <symbol id="o" overflow="visible">
   <path d="m0.03125-0.078125v-0.10938h0.046875v0.015625 0.046875 0.03125 0.03125c0.0078125 0 0.015625 0.0078125 0.015625 0.015625h0.015625 0.03125c0.007813-0.0078125 0.015625-0.023438 0.015625-0.046875v-0.09375h0.046875v0.1875h-0.046875v-0.03125c-0.011719 0.011719-0.023438 0.023438-0.03125 0.03125h-0.03125c-0.023438 0-0.039062-0.0039062-0.046875-0.015625-0.011719-0.0078125-0.015625-0.03125-0.015625-0.0625z"/>
  </symbol>
  <symbol id="n" overflow="visible">
   <path d="m0.03125-0.25h0.10938c0.03125 0 0.050781 0.011719 0.0625 0.03125 0.019531 0.011719 0.03125 0.03125 0.03125 0.0625 0 0.023438-0.011719 0.042969-0.03125 0.0625-0.011719 0.011719-0.03125 0.015625-0.0625 0.015625h-0.046875v0.078125h-0.0625zm0.0625 0.046875v0.078125h0.03125 0.03125c0.007812-0.007812 0.015625-0.019531 0.015625-0.03125 0-0.019531-0.007813-0.03125-0.015625-0.03125-0.011719-0.007812-0.023438-0.015625-0.03125-0.015625z"/>
  </symbol>
  <symbol id="m" overflow="visible">
   <path d="m0.03125-0.1875h0.0625v0.1875c0 0.019531-0.011719 0.035156-0.03125 0.046875-0.011719 0.019531-0.027344 0.03125-0.046875 0.03125h-0.03125v-0.046875h0.015625c0.0078125 0 0.015625-0.0078125 0.015625-0.015625 0.0078125 0 0.015625-0.0078125 0.015625-0.015625zm0-0.0625h0.0625v0.046875h-0.0625z"/>
  </symbol>
 </defs>
 <g>
  <path d="m449.77 472.5c-119.32 0-292.27-171.23-292.27-292.34 0-47.82 29.895-92.66 80.953-92.66 10.715 0 59.062 82.543 59.062 92.727 0 16.668-49.539 41.008-49.539 55.754 0 35.848 110.19 146.04 146.04 146.04 14.75 0 39.09-49.539 55.754-49.539 3.1094 0 89.289 45.57 91.934 53.375 18.254 42.461-49.867 86.641-91.934 86.641z" fill-rule="evenodd"/>
  <use x="70" y="560.992188" xlink:href="#u"/>
  <use x="70.242188" y="560.992188" xlink:href="#d"/>
  <use x="70.40625" y="560.992188" xlink:href="#b"/>
  <use x="70.628906" y="560.992188" xlink:href="#c"/>
  <use x="70.851563" y="560.992188" xlink:href="#a"/>
  <use x="71.011719" y="560.992188" xlink:href="#b"/>
  <use x="71.234375" y="560.992188" xlink:href="#l"/>
  <use x="71.585938" y="560.992188" xlink:href="#k"/>
  <use x="71.824219" y="560.992188" xlink:href="#j"/>
  <use x="72.15625" y="560.992188" xlink:href="#i"/>
  <use x="72.460938" y="560.992188" xlink:href="#c"/>
  <use x="72.683594" y="560.992188" xlink:href="#f"/>
  <use x="72.917969" y="560.992188" xlink:href="#h"/>
  <use x="73.148438" y="560.992188" xlink:href="#g"/>
  <use x="73.34375" y="560.992188" xlink:href="#c"/>
  <use x="73.566406" y="560.992188" xlink:href="#f"/>
  <use x="73.800781" y="560.992188" xlink:href="#a"/>
  <use x="73.960938" y="560.992188" xlink:href="#h"/>
  <use x="74.074219" y="560.992188" xlink:href="#t"/>
  <use x="70" y="561.324219" xlink:href="#s"/>
  <use x="70.144531" y="561.324219" xlink:href="#d"/>
  <use x="70.308594" y="561.324219" xlink:href="#e"/>
  <use x="70.535156" y="561.324219" xlink:href="#r"/>
  <use x="70.992188" y="561.324219" xlink:href="#a"/>
  <use x="71.152344" y="561.324219" xlink:href="#q"/>
  <use x="71.386719" y="561.324219" xlink:href="#b"/>
  <use x="71.726563" y="561.324219" xlink:href="#p"/>
  <use x="72.003906" y="561.324219" xlink:href="#e"/>
  <use x="72.230469" y="561.324219" xlink:href="#o"/>
  <use x="72.464844" y="561.324219" xlink:href="#f"/>
  <use x="72.816406" y="561.324219" xlink:href="#n"/>
  <use x="73.058594" y="561.324219" xlink:href="#d"/>
  <use x="73.222656" y="561.324219" xlink:href="#e"/>
  <use x="73.449219" y="561.324219" xlink:href="#m"/>
  <use x="73.5625" y="561.324219" xlink:href="#b"/>
  <use x="73.785156" y="561.324219" xlink:href="#g"/>
  <use x="73.984375" y="561.324219" xlink:href="#a"/>
 </g>
</svg>
